<svg id="fragmentMap" version="1.1" viewBox="0 0 900.5 210" xmlns="http://www.w3.org/2000/svg" _bl_87=""><!--!--><style>
            #fragmentMap text {
                font-family: sans-serif, Arial;
            }

            .resSvg {
                text-anchor: middle;
                font-weight: bold;
                fill: var(--mud-palette-text-primary);
            }

            .fixedSvg {
                fill: blue;
            }

            .cSvg {
                fill: goldenrod;
            }

            .NtermSvg {
                text-anchor: end;
            }

            .CtermSvg {
                text-anchor: middle;
            }

            .resSvg, .NtermSvg, .CtermSvg {
                font-size: 18px;
            }

            #fragmentMap rect {
                fill: transparent;
                opacity: 1.0;
                stroke-width: 2;
            }
        </style>

        <!--!--><text class="NtermSvg" x="40" y="30" opacity="0.3">N</text><rect x="22" y="12" rx="5" ry="5" width="22" height="23" class=""><title>N</title></rect><!--!--><text class="resSvg" x="62" y="30">M</text><rect x="51" y="12" rx="5" ry="5" width="22" height="23" class=""><title>M1</title></rect><!--!--><text class="resSvg" x="94" y="30">V</text><rect x="83" y="12" rx="5" ry="5" width="22" height="23" class=""><title>V2</title></rect><!--!--><text class="resSvg" x="126" y="30">H</text><rect x="115" y="12" rx="5" ry="5" width="22" height="23" class=""><title>H3</title></rect><!--!--><text class="resSvg" x="158" y="30">L</text><rect x="147" y="12" rx="5" ry="5" width="22" height="23" class=""><title>L4</title></rect><!--!--><text class="resSvg" x="190" y="30">T</text><rect x="179" y="12" rx="5" ry="5" width="22" height="23" class=""><title>T5</title></rect><!--!--><text class="resSvg" x="222" y="30">P</text><rect x="211" y="12" rx="5" ry="5" width="22" height="23" class=""><title>P6</title></rect><!--!--><text class="resSvg" x="254" y="30">E</text><rect x="243" y="12" rx="5" ry="5" width="22" height="23" class=""><title>E7</title></rect><!--!--><text class="resSvg" x="286" y="30">E</text><rect x="275" y="12" rx="5" ry="5" width="22" height="23" class=""><title>E8</title></rect><!--!--><text class="resSvg" x="318" y="30">K</text><rect x="307" y="12" rx="5" ry="5" width="22" height="23" class=""><title>K9</title></rect><!--!--><text class="resSvg" x="350" y="30">S</text><rect x="339" y="12" rx="5" ry="5" width="22" height="23" class=""><title>S10</title></rect><!--!--><text class="resSvg" x="382" y="30">A</text><rect x="371" y="12" rx="5" ry="5" width="22" height="23" class=""><title>A11</title></rect><!--!--><text class="resSvg" x="414" y="30">V</text><rect x="403" y="12" rx="5" ry="5" width="22" height="23" class=""><title>V12</title></rect><!--!--><text class="resSvg" x="446" y="30">T</text><rect x="435" y="12" rx="5" ry="5" width="22" height="23" class=""><title>T13</title></rect><!--!--><text class="resSvg" x="478" y="30">A</text><rect x="467" y="12" rx="5" ry="5" width="22" height="23" class=""><title>A14</title></rect><!--!--><text class="resSvg" x="510" y="30">L</text><rect x="499" y="12" rx="5" ry="5" width="22" height="23" class=""><title>L15</title></rect><!--!--><text class="resSvg" x="542" y="30">W</text><rect x="531" y="12" rx="5" ry="5" width="22" height="23" class=""><title>W16</title></rect><!--!--><text class="resSvg" x="574" y="30">G</text><rect x="563" y="12" rx="5" ry="5" width="22" height="23" class=""><title>G17</title></rect><!--!--><text class="resSvg" x="606" y="30">K</text><rect x="595" y="12" rx="5" ry="5" width="22" height="23" class=""><title>K18</title></rect><!--!--><text class="resSvg" x="638" y="30">V</text><rect x="627" y="12" rx="5" ry="5" width="22" height="23" class=""><title>V19</title></rect><!--!--><text class="resSvg" x="670" y="30">N</text><rect x="659" y="12" rx="5" ry="5" width="22" height="23" class=""><title>N20</title></rect><!--!--><text class="resSvg" x="702" y="30">V</text><rect x="691" y="12" rx="5" ry="5" width="22" height="23" class=""><title>V21</title></rect><!--!--><text class="resSvg" x="734" y="30">D</text><rect x="723" y="12" rx="5" ry="5" width="22" height="23" class=""><title>D22</title></rect><!--!--><text class="resSvg" x="766" y="30">E</text><rect x="755" y="12" rx="5" ry="5" width="22" height="23" class=""><title>E23</title></rect><!--!--><text class="resSvg" x="798" y="30">V</text><rect x="787" y="12" rx="5" ry="5" width="22" height="23" class=""><title>V24</title></rect><text x="880" y="30" font-size="16" fill="#aaa" text-anchor="end">25</text><!--!--><text class="resSvg" x="830" y="30">G</text><rect x="819" y="12" rx="5" ry="5" width="22" height="23" class=""><title>G25</title></rect><text x="40" y="60" font-size="16" fill="#aaa" text-anchor="end">26</text><!--!--><text class="resSvg" x="62" y="60">G</text><rect x="51" y="42" rx="5" ry="5" width="22" height="23" class=""><title>G26</title></rect><!--!--><text class="resSvg" x="94" y="60">E</text><rect x="83" y="42" rx="5" ry="5" width="22" height="23" class=""><title>E27</title></rect><!--!--><text class="resSvg" x="126" y="60">A</text><rect x="115" y="42" rx="5" ry="5" width="22" height="23" class=""><title>A28</title></rect><!--!--><text class="resSvg" x="158" y="60">L</text><rect x="147" y="42" rx="5" ry="5" width="22" height="23" class=""><title>L29</title></rect><!--!--><text class="resSvg" x="190" y="60">G</text><rect x="179" y="42" rx="5" ry="5" width="22" height="23" class=""><title>G30</title></rect><!--!--><text class="resSvg" x="222" y="60">R</text><rect x="211" y="42" rx="5" ry="5" width="22" height="23" class=""><title>R31</title></rect><!--!--><text class="resSvg" x="254" y="60">L</text><rect x="243" y="42" rx="5" ry="5" width="22" height="23" class=""><title>L32</title></rect><!--!--><text class="resSvg" x="286" y="60">L</text><rect x="275" y="42" rx="5" ry="5" width="22" height="23" class=""><title>L33</title></rect><!--!--><text class="resSvg" x="318" y="60">V</text><rect x="307" y="42" rx="5" ry="5" width="22" height="23" class=""><title>V34</title></rect><!--!--><text class="resSvg" x="350" y="60">V</text><rect x="339" y="42" rx="5" ry="5" width="22" height="23" class=""><title>V35</title></rect><!--!--><text class="resSvg" x="382" y="60">Y</text><rect x="371" y="42" rx="5" ry="5" width="22" height="23" class=""><title>Y36</title></rect><!--!--><text class="resSvg" x="414" y="60">P</text><rect x="403" y="42" rx="5" ry="5" width="22" height="23" class=""><title>P37</title></rect><!--!--><text class="resSvg" x="446" y="60">W</text><rect x="435" y="42" rx="5" ry="5" width="22" height="23" class=""><title>W38</title></rect><!--!--><text class="resSvg" x="478" y="60">T</text><rect x="467" y="42" rx="5" ry="5" width="22" height="23" class=""><title>T39</title></rect><!--!--><text class="resSvg" x="510" y="60">Q</text><rect x="499" y="42" rx="5" ry="5" width="22" height="23" class=""><title>Q40</title></rect><!--!--><text class="resSvg" x="542" y="60">R</text><rect x="531" y="42" rx="5" ry="5" width="22" height="23" class=""><title>R41</title></rect><!--!--><text class="resSvg" x="574" y="60">F</text><rect x="563" y="42" rx="5" ry="5" width="22" height="23" class=""><title>F42</title></rect><!--!--><text class="resSvg" x="606" y="60">F</text><rect x="595" y="42" rx="5" ry="5" width="22" height="23" class=""><title>F43</title></rect><!--!--><text class="resSvg" x="638" y="60">E</text><rect x="627" y="42" rx="5" ry="5" width="22" height="23" class=""><title>E44</title></rect><!--!--><text class="resSvg" x="670" y="60">S</text><rect x="659" y="42" rx="5" ry="5" width="22" height="23" class=""><title>S45</title></rect><!--!--><text class="resSvg" x="702" y="60">F</text><rect x="691" y="42" rx="5" ry="5" width="22" height="23" class=""><title>F46</title></rect><!--!--><text class="resSvg" x="734" y="60">G</text><rect x="723" y="42" rx="5" ry="5" width="22" height="23" class=""><title>G47</title></rect><!--!--><text class="resSvg" x="766" y="60">D</text><rect x="755" y="42" rx="5" ry="5" width="22" height="23" class=""><title>D48</title></rect><!--!--><text class="resSvg" x="798" y="60">L</text><rect x="787" y="42" rx="5" ry="5" width="22" height="23" class=""><title>L49</title></rect><text x="880" y="60" font-size="16" fill="#aaa" text-anchor="end">50</text><!--!--><text class="resSvg" x="830" y="60">S</text><rect x="819" y="42" rx="5" ry="5" width="22" height="23" class=""><title>S50</title></rect><text x="40" y="90" font-size="16" fill="#aaa" text-anchor="end">51</text><!--!--><text class="resSvg" x="62" y="90">T</text><rect x="51" y="72" rx="5" ry="5" width="22" height="23" class=""><title>T51</title></rect><!--!--><text class="resSvg" x="94" y="90">P</text><rect x="83" y="72" rx="5" ry="5" width="22" height="23" class=""><title>P52</title></rect><!--!--><text class="resSvg" x="126" y="90">D</text><rect x="115" y="72" rx="5" ry="5" width="22" height="23" class=""><title>D53</title></rect><!--!--><text class="resSvg" x="158" y="90">A</text><rect x="147" y="72" rx="5" ry="5" width="22" height="23" class=""><title>A54</title></rect><!--!--><text class="resSvg" x="190" y="90">V</text><rect x="179" y="72" rx="5" ry="5" width="22" height="23" class=""><title>V55</title></rect><!--!--><text class="resSvg" x="222" y="90">M</text><rect x="211" y="72" rx="5" ry="5" width="22" height="23" class=""><title>M56</title></rect><!--!--><text class="resSvg" x="254" y="90">G</text><rect x="243" y="72" rx="5" ry="5" width="22" height="23" class=""><title>G57</title></rect><!--!--><text class="resSvg" x="286" y="90">N</text><rect x="275" y="72" rx="5" ry="5" width="22" height="23" class=""><title>N58</title></rect><!--!--><text class="resSvg" x="318" y="90">P</text><rect x="307" y="72" rx="5" ry="5" width="22" height="23" class=""><title>P59</title></rect><!--!--><text class="resSvg" x="350" y="90">K</text><rect x="339" y="72" rx="5" ry="5" width="22" height="23" class=""><title>K60</title></rect><!--!--><text class="resSvg" x="382" y="90">V</text><rect x="371" y="72" rx="5" ry="5" width="22" height="23" class=""><title>V61</title></rect><!--!--><text class="resSvg" x="414" y="90">K</text><rect x="403" y="72" rx="5" ry="5" width="22" height="23" class=""><title>K62</title></rect><!--!--><text class="resSvg" x="446" y="90">A</text><rect x="435" y="72" rx="5" ry="5" width="22" height="23" class=""><title>A63</title></rect><!--!--><text class="resSvg" x="478" y="90">H</text><rect x="467" y="72" rx="5" ry="5" width="22" height="23" class=""><title>H64</title></rect><!--!--><text class="resSvg" x="510" y="90">G</text><rect x="499" y="72" rx="5" ry="5" width="22" height="23" class=""><title>G65</title></rect><!--!--><text class="resSvg" x="542" y="90">K</text><rect x="531" y="72" rx="5" ry="5" width="22" height="23" class=""><title>K66</title></rect><!--!--><text class="resSvg" x="574" y="90">K</text><rect x="563" y="72" rx="5" ry="5" width="22" height="23" class=""><title>K67</title></rect><!--!--><text class="resSvg" x="606" y="90">V</text><rect x="595" y="72" rx="5" ry="5" width="22" height="23" class=""><title>V68</title></rect><!--!--><text class="resSvg" x="638" y="90">L</text><rect x="627" y="72" rx="5" ry="5" width="22" height="23" class=""><title>L69</title></rect><!--!--><text class="resSvg" x="670" y="90">G</text><rect x="659" y="72" rx="5" ry="5" width="22" height="23" class=""><title>G70</title></rect><!--!--><text class="resSvg" x="702" y="90">A</text><rect x="691" y="72" rx="5" ry="5" width="22" height="23" class=""><title>A71</title></rect><!--!--><text class="resSvg" x="734" y="90">F</text><rect x="723" y="72" rx="5" ry="5" width="22" height="23" class=""><title>F72</title></rect><!--!--><text class="resSvg" x="766" y="90">S</text><rect x="755" y="72" rx="5" ry="5" width="22" height="23" class=""><title>S73</title></rect><!--!--><text class="resSvg" x="798" y="90">D</text><rect x="787" y="72" rx="5" ry="5" width="22" height="23" class=""><title>D74</title></rect><text x="880" y="90" font-size="16" fill="#aaa" text-anchor="end">75</text><!--!--><text class="resSvg" x="830" y="90">G</text><rect x="819" y="72" rx="5" ry="5" width="22" height="23" class=""><title>G75</title></rect><text x="40" y="120" font-size="16" fill="#aaa" text-anchor="end">76</text><!--!--><text class="resSvg" x="62" y="120">L</text><rect x="51" y="102" rx="5" ry="5" width="22" height="23" class=""><title>L76</title></rect><!--!--><text class="resSvg" x="94" y="120">A</text><rect x="83" y="102" rx="5" ry="5" width="22" height="23" class=""><title>A77</title></rect><!--!--><text class="resSvg" x="126" y="120">H</text><rect x="115" y="102" rx="5" ry="5" width="22" height="23" class=""><title>H78</title></rect><!--!--><text class="resSvg" x="158" y="120">L</text><rect x="147" y="102" rx="5" ry="5" width="22" height="23" class=""><title>L79</title></rect><!--!--><text class="resSvg" x="190" y="120">D</text><rect x="179" y="102" rx="5" ry="5" width="22" height="23" class=""><title>D80</title></rect><!--!--><text class="resSvg" x="222" y="120">N</text><rect x="211" y="102" rx="5" ry="5" width="22" height="23" class=""><title>N81</title></rect><!--!--><text class="resSvg" x="254" y="120">L</text><rect x="243" y="102" rx="5" ry="5" width="22" height="23" class=""><title>L82</title></rect><!--!--><text class="resSvg" x="286" y="120">K</text><rect x="275" y="102" rx="5" ry="5" width="22" height="23" class=""><title>K83</title></rect><!--!--><text class="resSvg" x="318" y="120">G</text><rect x="307" y="102" rx="5" ry="5" width="22" height="23" class=""><title>G84</title></rect><!--!--><text class="resSvg" x="350" y="120">T</text><rect x="339" y="102" rx="5" ry="5" width="22" height="23" class=""><title>T85</title></rect><!--!--><text class="resSvg" x="382" y="120">F</text><rect x="371" y="102" rx="5" ry="5" width="22" height="23" class=""><title>F86</title></rect><!--!--><text class="resSvg" x="414" y="120">A</text><rect x="403" y="102" rx="5" ry="5" width="22" height="23" class=""><title>A87</title></rect><!--!--><text class="resSvg" x="446" y="120">T</text><rect x="435" y="102" rx="5" ry="5" width="22" height="23" class=""><title>T88</title></rect><!--!--><text class="resSvg" x="478" y="120">L</text><rect x="467" y="102" rx="5" ry="5" width="22" height="23" class=""><title>L89</title></rect><!--!--><text class="resSvg" x="510" y="120">S</text><rect x="499" y="102" rx="5" ry="5" width="22" height="23" class=""><title>S90</title></rect><!--!--><text class="resSvg" x="542" y="120">E</text><rect x="531" y="102" rx="5" ry="5" width="22" height="23" class=""><title>E91</title></rect><!--!--><text class="resSvg" x="574" y="120">L</text><rect x="563" y="102" rx="5" ry="5" width="22" height="23" class=""><title>L92</title></rect><!--!--><text class="resSvg" x="606" y="120">H</text><rect x="595" y="102" rx="5" ry="5" width="22" height="23" class=""><title>H93</title></rect><!--!--><text class="resSvg cSvg" x="638" y="120">C</text><rect x="627" y="102" rx="5" ry="5" width="22" height="23" class=""><title>C94</title></rect><!--!--><text class="resSvg" x="670" y="120">D</text><rect x="659" y="102" rx="5" ry="5" width="22" height="23" class=""><title>D95</title></rect><!--!--><text class="resSvg" x="702" y="120">K</text><rect x="691" y="102" rx="5" ry="5" width="22" height="23" class=""><title>K96</title></rect><!--!--><text class="resSvg" x="734" y="120">L</text><rect x="723" y="102" rx="5" ry="5" width="22" height="23" class=""><title>L97</title></rect><!--!--><text class="resSvg" x="766" y="120">H</text><rect x="755" y="102" rx="5" ry="5" width="22" height="23" class=""><title>H98</title></rect><!--!--><text class="resSvg" x="798" y="120">V</text><rect x="787" y="102" rx="5" ry="5" width="22" height="23" class=""><title>V99</title></rect><text x="880" y="120" font-size="16" fill="#aaa" text-anchor="end">100</text><!--!--><text class="resSvg" x="830" y="120">D</text><rect x="819" y="102" rx="5" ry="5" width="22" height="23" class=""><title>D100</title></rect><text x="40" y="150" font-size="16" fill="#aaa" text-anchor="end">101</text><!--!--><text class="resSvg" x="62" y="150">P</text><rect x="51" y="132" rx="5" ry="5" width="22" height="23" class=""><title>P101</title></rect><!--!--><text class="resSvg" x="94" y="150">E</text><rect x="83" y="132" rx="5" ry="5" width="22" height="23" class=""><title>E102</title></rect><!--!--><text class="resSvg" x="126" y="150">N</text><rect x="115" y="132" rx="5" ry="5" width="22" height="23" class=""><title>N103</title></rect><!--!--><text class="resSvg" x="158" y="150">F</text><rect x="147" y="132" rx="5" ry="5" width="22" height="23" class=""><title>F104</title></rect><!--!--><text class="resSvg" x="190" y="150">R</text><rect x="179" y="132" rx="5" ry="5" width="22" height="23" class=""><title>R105</title></rect><!--!--><text class="resSvg" x="222" y="150">L</text><rect x="211" y="132" rx="5" ry="5" width="22" height="23" class=""><title>L106</title></rect><!--!--><text class="resSvg" x="254" y="150">L</text><rect x="243" y="132" rx="5" ry="5" width="22" height="23" class=""><title>L107</title></rect><!--!--><text class="resSvg" x="286" y="150">G</text><rect x="275" y="132" rx="5" ry="5" width="22" height="23" class=""><title>G108</title></rect><!--!--><text class="resSvg" x="318" y="150">N</text><rect x="307" y="132" rx="5" ry="5" width="22" height="23" class=""><title>N109</title></rect><!--!--><text class="resSvg" x="350" y="150">V</text><rect x="339" y="132" rx="5" ry="5" width="22" height="23" class=""><title>V110</title></rect><!--!--><text class="resSvg" x="382" y="150">L</text><rect x="371" y="132" rx="5" ry="5" width="22" height="23" class=""><title>L111</title></rect><!--!--><text class="resSvg" x="414" y="150">V</text><rect x="403" y="132" rx="5" ry="5" width="22" height="23" class=""><title>V112</title></rect><!--!--><text class="resSvg cSvg" x="446" y="150">C</text><rect x="435" y="132" rx="5" ry="5" width="22" height="23" class=""><title>C113</title></rect><!--!--><text class="resSvg" x="478" y="150">V</text><rect x="467" y="132" rx="5" ry="5" width="22" height="23" class=""><title>V114</title></rect><!--!--><text class="resSvg" x="510" y="150">L</text><rect x="499" y="132" rx="5" ry="5" width="22" height="23" class=""><title>L115</title></rect><!--!--><text class="resSvg" x="542" y="150">A</text><rect x="531" y="132" rx="5" ry="5" width="22" height="23" class=""><title>A116</title></rect><!--!--><text class="resSvg" x="574" y="150">H</text><rect x="563" y="132" rx="5" ry="5" width="22" height="23" class=""><title>H117</title></rect><!--!--><text class="resSvg" x="606" y="150">H</text><rect x="595" y="132" rx="5" ry="5" width="22" height="23" class=""><title>H118</title></rect><!--!--><text class="resSvg" x="638" y="150">F</text><rect x="627" y="132" rx="5" ry="5" width="22" height="23" class=""><title>F119</title></rect><!--!--><text class="resSvg" x="670" y="150">G</text><rect x="659" y="132" rx="5" ry="5" width="22" height="23" class=""><title>G120</title></rect><!--!--><text class="resSvg" x="702" y="150">K</text><rect x="691" y="132" rx="5" ry="5" width="22" height="23" class=""><title>K121</title></rect><!--!--><text class="resSvg" x="734" y="150">E</text><rect x="723" y="132" rx="5" ry="5" width="22" height="23" class=""><title>E122</title></rect><!--!--><text class="resSvg" x="766" y="150">F</text><rect x="755" y="132" rx="5" ry="5" width="22" height="23" class=""><title>F123</title></rect><!--!--><text class="resSvg" x="798" y="150">T</text><rect x="787" y="132" rx="5" ry="5" width="22" height="23" class=""><title>T124</title></rect><text x="880" y="150" font-size="16" fill="#aaa" text-anchor="end">125</text><!--!--><text class="resSvg" x="830" y="150">P</text><rect x="819" y="132" rx="5" ry="5" width="22" height="23" class=""><title>P125</title></rect><text x="40" y="180" font-size="16" fill="#aaa" text-anchor="end">126</text><!--!--><text class="resSvg" x="62" y="180">P</text><rect x="51" y="162" rx="5" ry="5" width="22" height="23" class=""><title>P126</title></rect><!--!--><text class="resSvg" x="94" y="180">V</text><rect x="83" y="162" rx="5" ry="5" width="22" height="23" class=""><title>V127</title></rect><!--!--><text class="resSvg" x="126" y="180">Q</text><rect x="115" y="162" rx="5" ry="5" width="22" height="23" class=""><title>Q128</title></rect><!--!--><text class="resSvg" x="158" y="180">A</text><rect x="147" y="162" rx="5" ry="5" width="22" height="23" class=""><title>A129</title></rect><!--!--><text class="resSvg" x="190" y="180">A</text><rect x="179" y="162" rx="5" ry="5" width="22" height="23" class=""><title>A130</title></rect><!--!--><text class="resSvg" x="222" y="180">Y</text><rect x="211" y="162" rx="5" ry="5" width="22" height="23" class=""><title>Y131</title></rect><!--!--><text class="resSvg" x="254" y="180">Q</text><rect x="243" y="162" rx="5" ry="5" width="22" height="23" class=""><title>Q132</title></rect><!--!--><text class="resSvg" x="286" y="180">K</text><rect x="275" y="162" rx="5" ry="5" width="22" height="23" class=""><title>K133</title></rect><!--!--><text class="resSvg" x="318" y="180">V</text><rect x="307" y="162" rx="5" ry="5" width="22" height="23" class=""><title>V134</title></rect><!--!--><text class="resSvg" x="350" y="180">V</text><rect x="339" y="162" rx="5" ry="5" width="22" height="23" class=""><title>V135</title></rect><!--!--><text class="resSvg" x="382" y="180">A</text><rect x="371" y="162" rx="5" ry="5" width="22" height="23" class=""><title>A136</title></rect><!--!--><text class="resSvg" x="414" y="180">G</text><rect x="403" y="162" rx="5" ry="5" width="22" height="23" class=""><title>G137</title></rect><!--!--><text class="resSvg" x="446" y="180">V</text><rect x="435" y="162" rx="5" ry="5" width="22" height="23" class=""><title>V138</title></rect><!--!--><text class="resSvg" x="478" y="180">A</text><rect x="467" y="162" rx="5" ry="5" width="22" height="23" class=""><title>A139</title></rect><!--!--><text class="resSvg" x="510" y="180">N</text><rect x="499" y="162" rx="5" ry="5" width="22" height="23" class=""><title>N140</title></rect><!--!--><text class="resSvg" x="542" y="180">A</text><rect x="531" y="162" rx="5" ry="5" width="22" height="23" class=""><title>A141</title></rect><!--!--><text class="resSvg" x="574" y="180">L</text><rect x="563" y="162" rx="5" ry="5" width="22" height="23" class=""><title>L142</title></rect><!--!--><text class="resSvg" x="606" y="180">A</text><rect x="595" y="162" rx="5" ry="5" width="22" height="23" class=""><title>A143</title></rect><!--!--><text class="resSvg" x="638" y="180">H</text><rect x="627" y="162" rx="5" ry="5" width="22" height="23" class=""><title>H144</title></rect><!--!--><text class="resSvg" x="670" y="180">K</text><rect x="659" y="162" rx="5" ry="5" width="22" height="23" class=""><title>K145</title></rect><!--!--><text class="resSvg" x="702" y="180">Y</text><rect x="691" y="162" rx="5" ry="5" width="22" height="23" class=""><title>Y146</title></rect><!--!--><text class="resSvg" x="734" y="180">H</text><rect x="723" y="162" rx="5" ry="5" width="22" height="23" class=""><title>H147</title></rect><!--!--><text class="CtermSvg" x="766" y="180" opacity="0.3">C</text><rect x="755" y="162" rx="5" ry="5" width="22" height="23" class=""><title>C</title></rect><!--!--><!--!--><path stroke="blue" fill="blue" d="M653, 167 L653, 182 L659, 184 L659, 182 L655, 180 L655, 167 Z"><title>Y3
446.23 Da
1 Match(es)</title></path><!--!--><!--!--><path stroke="blue" fill="blue" d="M621, 167 L621, 182 L627, 184 L627, 182 L623, 180 L623, 167 Z"><title>Y4
583.29 Da
1 Match(es)</title></path><!--!--><!--!--><path stroke="blue" fill="blue" d="M589, 167 L589, 182 L595, 184 L595, 182 L591, 180 L591, 167 Z"><title>Y5
654.32 Da
1 Match(es)</title></path><!--!--><!--!--><path stroke="blue" fill="blue" d="M461, 167 L461, 182 L467, 184 L467, 182 L463, 180 L463, 167 Z"><title>Y9
1,023.53 Da
1 Match(es)</title></path><!--!--><!--!--><path stroke="blue" fill="blue" d="M429, 167 L429, 182 L435, 184 L435, 182 L431, 180 L431, 167 Z"><title>Y10
1,122.59 Da
1 Match(es)</title></path><!--!--><!--!--><path stroke="blue" fill="blue" d="M397, 167 L397, 182 L403, 184 L403, 182 L399, 180 L399, 167 Z"><title>Y11
1,179.61 Da
1 Match(es)</title></path><!--!--><!--!--><path stroke="blue" fill="blue" d="M365, 167 L365, 182 L371, 184 L371, 182 L367, 180 L367, 167 Z"><title>Y12
1,250.65 Da
1 Match(es)</title></path><!--!--><!--!--><path stroke="blue" fill="blue" d="M333, 167 L333, 182 L339, 184 L339, 182 L335, 180 L335, 167 Z"><title>Y13
1,349.72 Da
1 Match(es)</title></path><!--!--><!--!--><path stroke="blue" fill="blue" d="M301, 167 L301, 182 L307, 184 L307, 182 L303, 180 L303, 167 Z"><title>Y14
1,448.79 Da
1 Match(es)</title></path><!--!--><!--!--><path stroke="blue" fill="blue" d="M269, 167 L269, 182 L275, 184 L275, 182 L271, 180 L271, 167 Z"><title>Y15
1,576.88 Da
1 Match(es)</title></path><!--!--><!--!--><path stroke="blue" fill="blue" d="M205, 167 L205, 182 L211, 184 L211, 182 L207, 180 L207, 167 Z"><title>Y17
1,868.01 Da
1 Match(es)</title></path><!--!--><!--!--><path stroke="blue" fill="blue" d="M173, 167 L173, 182 L179, 184 L179, 182 L175, 180 L175, 167 Z"><title>Y18
1,939.04 Da
1 Match(es)</title></path><!--!--><!--!--><path stroke="blue" fill="blue" d="M141, 167 L141, 182 L147, 184 L147, 182 L143, 180 L143, 167 Z"><title>Y19
2,010.08 Da
1 Match(es)</title></path><!--!--><!--!--><path stroke="blue" fill="blue" d="M77, 167 L77, 182 L83, 184 L83, 182 L79, 180 L79, 167 Z"><title>Y21
2,237.21 Da
1 Match(es)</title></path><!--!--><!--!--><path stroke="blue" fill="blue" d="M45, 167 L45, 182 L51, 184 L51, 182 L47, 180 L47, 167 Z"><title>Y22
2,334.26 Da
1 Match(es)</title></path><!--!--><!--!--><path stroke="blue" fill="blue" d="M813, 137 L813, 152 L819, 154 L819, 152 L815, 150 L815, 137 Z"><title>Y23
2,431.31 Da
1 Match(es)</title></path><!--!--><!--!--><path stroke="blue" fill="blue" d="M781, 137 L781, 152 L787, 154 L787, 152 L783, 150 L783, 137 Z"><title>Y24
2,532.36 Da
1 Match(es)</title></path><!--!--><!--!--><path stroke="blue" fill="blue" d="M557, 137 L557, 152 L563, 154 L563, 152 L559, 150 L559, 137 Z"><title>Y31
3,414.77 Da
1 Match(es)</title></path><!--!--><!--!--><path stroke="blue" fill="blue" d="M493, 137 L493, 152 L499, 154 L499, 152 L495, 150 L495, 137 Z"><title>Y33
3,598.89 Da
1 Match(es)</title></path><!--!--><!--!--><path stroke="blue" fill="blue" d="M429, 137 L429, 152 L435, 154 L435, 152 L431, 150 L431, 137 Z"><title>Y35
3,800.97 Da
1 Match(es)</title></path><!--!--><!--!--><path stroke="blue" fill="blue" d="M397, 137 L397, 152 L403, 154 L403, 152 L399, 150 L399, 137 Z"><title>Y36
3,900.04 Da
1 Match(es)</title></path><!--!--><!--!--><path stroke="blue" fill="blue" d="M365, 137 L365, 152 L371, 154 L371, 152 L367, 150 L367, 137 Z"><title>Y37
4,013.13 Da
1 Match(es)</title></path><!--!--><!--!--><path stroke="blue" fill="blue" d="M45, 137 L45, 152 L51, 154 L51, 152 L47, 150 L47, 137 Z"><title>Y47
5,152.73 Da
1 Match(es)</title></path><!--!--><!--!--><path stroke="blue" fill="blue" d="M813, 107 L813, 122 L819, 124 L819, 122 L815, 120 L815, 107 Z"><title>Y48
5,267.76 Da
1 Match(es)</title></path><!--!--><!--!--><path stroke="blue" fill="blue" d="M621, 107 L621, 122 L627, 124 L627, 122 L623, 120 L623, 107 Z"><title>Y54
5,963.10 Da
1 Match(es)</title></path><!--!--><!--!--><path stroke="blue" fill="blue" d="M557, 107 L557, 122 L563, 124 L563, 122 L559, 120 L559, 107 Z"><title>Y56
6,213.25 Da
1 Match(es)</title></path><!--!--><!--!--><path stroke="blue" fill="blue" d="M141, 107 L141, 122 L147, 124 L147, 122 L143, 120 L143, 107 Z"><title>Y69
7,602.96 Da
1 Match(es)</title></path><!--!--><!--!--><path stroke="blue" fill="blue" d="M109, 107 L109, 122 L115, 124 L115, 122 L111, 120 L111, 107 Z"><title>Y70
7,740.02 Da
1 Match(es)</title></path><!--!--><!--!--><path stroke="blue" fill="blue" d="M749, 77 L749, 92 L755, 94 L755, 92 L751, 90 L751, 77 Z"><title>Y75
8,183.22 Da
1 Match(es)</title></path><!--!--><!--!--><path stroke="blue" fill="blue" d="M301, 77 L301, 92 L307, 94 L307, 92 L303, 90 L303, 77 Z"><title>Y89
9,644.12 Da
1 Match(es)</title></path><!--!--><!--!--><path stroke="blue" fill="blue" d="M269, 77 L269, 92 L275, 94 L275, 92 L271, 90 L271, 77 Z"><title>Y90
9,758.16 Da
1 Match(es)</title></path></svg>